<svg width="27" height="27" viewBox="0 0 27 27" fill="none" xmlns="http://www.w3.org/2000/svg">
<path d="M15.126 22.7872V14.092H18.1004L18.5467 10.7023H15.126V8.53843C15.126 7.55734 15.4026 6.88874 16.8386 6.88874L18.6671 6.888V3.85612C18.3509 3.81582 17.2654 3.72341 16.0021 3.72341C13.364 3.72341 11.5579 5.30282 11.5579 8.20272V10.7023H8.57446V14.092H11.5579V22.7872H15.126Z" fill="white"/>
<mask id="mask0_2_9" style="mask-type:luminance" maskUnits="userSpaceOnUse" x="8" y="3" width="11" height="20">
<path d="M15.126 22.7872V14.092H18.1004L18.5467 10.7023H15.126V8.53843C15.126 7.55734 15.4026 6.88874 16.8386 6.88874L18.6671 6.888V3.85612C18.3509 3.81582 17.2654 3.72341 16.0021 3.72341C13.364 3.72341 11.5579 5.30282 11.5579 8.20272V10.7023H8.57446V14.092H11.5579V22.7872H15.126Z" fill="white"/>
</mask>
<g mask="url(#mask0_2_9)">
<rect x="0.234131" y="0.148926" width="26.2128" height="26.2128" fill="white"/>
</g>
</svg>
