<svg width="27" height="27" viewBox="0 0 27 27" fill="none" xmlns="http://www.w3.org/2000/svg">
<path d="M13.3404 11.5872V14.9234H18.0594C17.3705 16.865 15.5156 18.2596 13.3404 18.2596C10.5814 18.2596 8.33617 16.0143 8.33617 13.2553C8.33617 10.4963 10.5814 8.25105 13.3404 8.25105C14.5364 8.25105 15.6874 8.67975 16.5815 9.45874L18.7734 6.94327C17.2721 5.63549 15.3438 4.91488 13.3404 4.91488C8.74151 4.91488 5 8.65639 5 13.2553C5 17.8542 8.74151 21.5957 13.3404 21.5957C17.9393 21.5957 21.6809 17.8542 21.6809 13.2553V11.5872H13.3404Z" fill="black"/>
<mask id="mask0_2_20" style="mask-type:luminance" maskUnits="userSpaceOnUse" x="5" y="4" width="17" height="18">
<path d="M13.3404 11.5872V14.9234H18.0594C17.3705 16.865 15.5156 18.2596 13.3404 18.2596C10.5814 18.2596 8.33617 16.0143 8.33617 13.2553C8.33617 10.4963 10.5814 8.25105 13.3404 8.25105C14.5364 8.25105 15.6874 8.67975 16.5815 9.45874L18.7734 6.94327C17.2721 5.63549 15.3438 4.91488 13.3404 4.91488C8.74151 4.91488 5 8.65639 5 13.2553C5 17.8542 8.74151 21.5957 13.3404 21.5957C17.9393 21.5957 21.6809 17.8542 21.6809 13.2553V11.5872H13.3404Z" fill="white"/>
</mask>
<g mask="url(#mask0_2_20)">
<rect x="0.234131" y="0.148926" width="26.2128" height="26.2128" fill="white"/>
</g>
</svg>
