<svg width="27" height="27" viewBox="0 0 27 27" fill="none" xmlns="http://www.w3.org/2000/svg">
<path d="M24.1701 7.10622C23.4246 7.43656 22.6247 7.6606 21.7842 7.76062C22.6424 7.24672 23.2993 6.43161 23.6106 5.46332C22.8056 5.93923 21.9171 6.28479 20.9703 6.47212C20.2122 5.66333 19.1338 5.15956 17.9376 5.15956C15.6429 5.15956 13.7823 7.02017 13.7823 9.31366C13.7823 9.63893 13.819 9.95663 13.8899 10.2604C10.437 10.087 7.37524 8.43272 5.32605 5.91897C4.96784 6.53159 4.76406 7.24543 4.76406 8.00742C4.76406 9.44909 5.49819 10.7211 6.61203 11.4654C5.93106 11.4426 5.2906 11.2553 4.72991 10.9439V10.9958C4.72991 13.0083 6.16271 14.6879 8.06253 15.0701C7.71445 15.1638 7.34741 15.2157 6.96769 15.2157C6.69937 15.2157 6.43989 15.1891 6.18548 15.1385C6.71453 16.7903 8.24861 17.9914 10.0662 18.0243C8.64478 19.1382 6.85251 19.8002 4.90585 19.8002C4.57045 19.8002 4.24007 19.7799 3.91479 19.7432C5.75389 20.9241 7.93726 21.6127 10.2839 21.6127C17.9276 21.6127 22.1057 15.2815 22.1057 9.79085L22.0918 9.25292C22.9082 8.67065 23.6144 7.93907 24.1701 7.10622Z" fill="#010002"/>
<mask id="mask0_2_31" style="mask-type:luminance" maskUnits="userSpaceOnUse" x="3" y="5" width="22" height="17">
<path d="M24.1701 7.10622C23.4246 7.43656 22.6247 7.6606 21.7842 7.76062C22.6424 7.24672 23.2993 6.43161 23.6106 5.46332C22.8056 5.93923 21.9171 6.28479 20.9703 6.47212C20.2122 5.66333 19.1338 5.15956 17.9376 5.15956C15.6429 5.15956 13.7823 7.02017 13.7823 9.31366C13.7823 9.63893 13.819 9.95663 13.8899 10.2604C10.437 10.087 7.37524 8.43272 5.32605 5.91897C4.96784 6.53159 4.76406 7.24543 4.76406 8.00742C4.76406 9.44909 5.49819 10.7211 6.61203 11.4654C5.93106 11.4426 5.2906 11.2553 4.72991 10.9439V10.9958C4.72991 13.0083 6.16271 14.6879 8.06253 15.0701C7.71445 15.1638 7.34741 15.2157 6.96769 15.2157C6.69937 15.2157 6.43989 15.1891 6.18548 15.1385C6.71453 16.7903 8.24861 17.9914 10.0662 18.0243C8.64478 19.1382 6.85251 19.8002 4.90585 19.8002C4.57045 19.8002 4.24007 19.7799 3.91479 19.7432C5.75389 20.9241 7.93726 21.6127 10.2839 21.6127C17.9276 21.6127 22.1057 15.2815 22.1057 9.79085L22.0918 9.25292C22.9082 8.67065 23.6144 7.93907 24.1701 7.10622Z" fill="white"/>
</mask>
<g mask="url(#mask0_2_31)">
<rect x="0.340332" y="0.393608" width="26.2128" height="26.2128" fill="white"/>
</g>
</svg>
